# xmcd
#
# Track frame offsets: 
#        150
#        28079
#        57830
#        81576
#        107524
#        130345
#        148977
#        178565
#        198120
#        235117
#        257697
#
# Disc length: 3451 seconds
#
# Revision: 0
# Processed by: cddbd v1.5.2PL0 Copyright (c) Steve Scherf et al.
# Submitted via: ExactAudioCopy v0.99pb3
#
DISCID=980d790b
DTITLE=Blues-Lick - Sekt und wuide Weiber
DYEAR=1900
DGENRE=Blues
TTITLE0=Sekt und wuide Weiber
TTITLE1=Dann werd a Reiba
TTITLE2=Langsam werd's ma z bl‰d
TTITLE3=Da Gerichtsvoizieha
TTITLE4=Da Louisiana Schorsch
TTITLE5=Mir koana Schuid bewuﬂt - Blues
TTITLE6=Henriette
TTITLE7=Bayern- Rock
TTITLE8=Da Blues Paule
TTITLE9=Jedn Dog in d Arbat
TTITLE10=Outro
EXTD=
EXTT0=
EXTT1=
EXTT2=
EXTT3=
EXTT4=
EXTT5=
EXTT6=
EXTT7=
EXTT8=
EXTT9=
EXTT10=
PLAYORDER=
